<?xml version="1.0" standalone="no"?>
<!DOCTYPE svg PUBLIC "-//W3C//DTD SVG 20010904//EN"
 "http://www.w3.org/TR/2001/REC-SVG-20010904/DTD/svg10.dtd">
<svg version="1.0" xmlns="http://www.w3.org/2000/svg"
 width="1000.000000pt" height="1000.000000pt" viewBox="0 0 1000.000000 1000.000000"
 preserveAspectRatio="xMidYMid meet">
<metadata>
Created by potrace 1.11, written by Peter Selinger 2001-2013
</metadata>
<g transform="translate(0.000000,1000.000000) scale(0.100000,-0.100000)"
fill="#000000" stroke="none">
<path d="M3319 8816 c-2 -2 -44 -6 -94 -10 -106 -8 -137 -12 -245 -32 -8 -2
-43 -8 -78 -14 -205 -35 -564 -152 -851 -276 -127 -55 -362 -172 -419 -208
-23 -14 -44 -26 -46 -26 -15 0 -291 -182 -386 -254 -172 -131 -202 -157 -360
-316 -185 -184 -307 -341 -450 -574 -176 -290 -333 -708 -365 -976 -4 -30 -10
-59 -13 -64 -10 -16 -11 -367 -1 -426 5 -30 11 -73 15 -95 16 -116 96 -377
164 -535 35 -82 154 -326 198 -405 156 -282 424 -678 646 -956 34 -41 72 -90
86 -109 14 -18 37 -47 51 -64 15 -17 66 -78 114 -136 48 -58 101 -121 119
-140 17 -19 60 -69 96 -110 36 -41 70 -80 75 -86 270 -297 326 -356 660 -689
279 -279 355 -353 533 -518 106 -98 46 -34 -165 179 -120 121 -263 268 -318
328 -55 60 -111 121 -125 136 -14 15 -50 56 -80 90 -30 35 -60 68 -65 74 -134
145 -474 572 -622 781 -136 192 -326 483 -395 605 -14 25 -42 74 -63 110 -51
88 -195 378 -234 470 -18 41 -36 84 -41 95 -84 186 -186 522 -224 735 -33 187
-41 270 -41 440 1 167 5 200 45 344 71 257 257 576 489 841 75 86 321 324 411
399 52 43 104 86 115 95 31 25 224 162 285 202 290 189 588 337 860 427 157
51 315 87 446 99 153 15 456 9 579 -12 130 -22 169 -30 235 -46 207 -54 375
-122 560 -230 46 -27 205 -146 258 -194 68 -62 140 -160 191 -260 43 -85 106
-264 117 -330 3 -22 8 -43 10 -46 2 -3 6 -21 9 -40 3 -19 10 -59 15 -89 5 -30
12 -77 15 -105 3 -27 7 -68 10 -90 10 -89 15 -155 20 -245 3 -52 8 -126 10
-165 2 -38 7 -126 10 -195 16 -361 26 -525 34 -532 3 -4 33 16 66 44 106 89
168 143 179 153 118 110 579 498 686 578 273 204 589 387 795 462 28 10 55 22
60 25 6 4 28 13 50 20 22 7 63 23 90 36 92 41 158 66 420 154 302 103 408 133
525 154 47 8 101 18 120 22 73 13 404 12 480 -1 313 -57 619 -276 741 -531 27
-58 75 -185 84 -224 2 -8 10 -44 18 -80 24 -102 29 -156 31 -290 7 -391 -134
-769 -461 -1240 -63 -90 -216 -278 -317 -389 -81 -88 -343 -348 -426 -421 -47
-41 -105 -93 -130 -116 -25 -22 -90 -78 -145 -123 -55 -46 -109 -90 -120 -100
-43 -35 -246 -191 -355 -272 -364 -270 -832 -580 -1315 -871 -99 -60 -187
-113 -195 -118 -50 -30 -387 -226 -400 -233 -8 -4 -33 -18 -55 -30 -118 -68
-431 -241 -575 -319 -91 -48 -172 -93 -180 -98 -8 -6 -22 -13 -30 -17 -8 -3
-100 -52 -205 -108 -104 -56 -244 -130 -310 -165 -66 -34 -160 -84 -210 -110
-49 -26 -133 -70 -185 -97 -311 -164 -335 -178 -310 -181 24 -3 267 76 435
140 395 153 925 375 1180 494 33 16 62 29 65 29 7 1 109 49 183 86 32 16 63
29 69 29 5 0 23 9 39 21 16 11 29 18 29 15 0 -3 39 14 88 38 48 24 202 101
342 171 140 70 291 147 335 170 286 152 343 183 575 313 113 63 212 121 221
128 8 8 18 14 21 14 19 0 509 307 748 469 226 152 692 496 720 530 3 3 46 40
95 81 166 137 260 224 425 391 160 161 187 191 297 324 314 383 499 752 557
1110 23 143 25 168 26 335 2 160 -4 227 -34 390 -69 378 -269 743 -553 1009
-94 88 -158 127 -297 183 -68 27 -234 75 -287 83 -24 4 -46 8 -49 10 -41 26
-637 26 -679 1 -3 -2 -28 -7 -56 -10 -27 -4 -57 -9 -65 -11 -8 -2 -31 -6 -50
-9 -19 -3 -80 -17 -135 -32 -55 -14 -104 -27 -110 -28 -86 -22 -217 -65 -355
-118 -58 -22 -118 -46 -135 -53 -16 -7 -62 -27 -101 -43 -161 -71 -447 -220
-629 -329 -433 -261 -863 -597 -1088 -851 l-38 -44 6 89 c3 48 8 106 10 128 2
22 7 66 10 98 10 108 16 172 20 207 30 250 38 498 21 617 -15 106 -57 250
-112 388 -82 206 -273 443 -509 633 -292 234 -675 389 -1070 431 -72 8 -379
13 -386 7z"/>
<path d="M2831 1743 c1 -5 27 -30 58 -58 l56 -49 -55 57 c-55 58 -61 63 -59
50z"/>
<path d="M2980 1606 c0 -2 8 -10 18 -17 15 -13 16 -12 3 4 -13 16 -21 21 -21
13z"/>
</g>
</svg>
