<?xml version="1.0" encoding="UTF-8" ?>
<!DOCTYPE svg PUBLIC "-//W3C//DTD SVG 1.1//EN" "http://www.w3.org/Graphics/SVG/1.1/DTD/svg11.dtd">
<svg width="2145pt" height="523pt" viewBox="0 0 2145 523" version="1.1" xmlns="http://www.w3.org/2000/svg">
<g id="#ec222eff">
<path fill="#ec222e" opacity="1.00" d=" M 1173.71 200.72 C 1186.93 184.88 1206.61 175.17 1226.87 172.25 C 1243.56 169.99 1261.94 172.78 1275.14 183.92 C 1284.91 192.13 1290.93 204.71 1291.41 217.44 C 1289.65 211.21 1287.07 205.12 1282.89 200.10 C 1275.00 190.12 1262.53 184.47 1249.98 183.56 C 1227.92 181.92 1205.44 192.66 1192.66 210.68 C 1188.34 216.64 1185.47 223.51 1183.42 230.54 C 1179.14 244.84 1178.48 260.47 1183.15 274.76 C 1188.56 291.69 1200.40 305.81 1213.99 316.92 C 1238.46 336.74 1267.87 349.22 1297.36 359.54 C 1299.55 360.01 1302.94 362.50 1303.74 358.97 C 1303.62 359.89 1303.53 360.82 1303.46 361.75 C 1316.16 365.51 1328.76 369.59 1341.59 372.89 C 1321.05 368.96 1300.91 363.12 1280.98 356.82 C 1250.96 347.05 1221.02 335.30 1195.41 316.49 C 1180.11 305.10 1166.25 290.43 1160.09 272.03 C 1154.68 256.55 1155.83 239.42 1161.03 224.05 C 1163.73 215.57 1167.94 207.53 1173.71 200.72 Z" />
</g>
<g id="#000000ff">
<path fill="#000000" opacity="1.00" d=" M 1536.64 192.17 C 1538.23 192.52 1539.82 192.88 1541.44 193.26 C 1541.49 202.23 1537.39 210.86 1531.17 217.19 C 1526.45 221.65 1519.37 222.46 1513.22 221.33 C 1505.10 219.70 1497.33 215.89 1488.89 216.28 C 1484.91 216.46 1480.25 217.35 1478.17 221.17 C 1475.90 224.79 1477.60 229.23 1479.51 232.60 C 1483.83 240.16 1491.89 244.17 1498.03 249.99 C 1503.36 254.80 1507.88 260.91 1509.23 268.11 C 1511.71 278.39 1507.75 288.64 1504.19 298.15 C 1501.59 305.81 1496.66 312.35 1491.56 318.52 C 1486.02 324.99 1478.91 330.80 1470.30 332.30 C 1462.82 333.52 1454.21 331.94 1449.02 326.02 C 1444.75 321.13 1443.80 314.35 1444.15 308.09 C 1435.39 311.40 1425.33 310.82 1417.10 306.32 C 1411.53 315.03 1405.12 323.69 1396.03 328.99 C 1386.50 334.69 1372.25 334.20 1365.02 325.03 C 1360.26 318.76 1359.96 310.35 1361.30 302.88 C 1364.35 284.88 1375.64 268.85 1390.47 258.45 C 1393.23 256.42 1396.55 255.37 1399.91 254.80 C 1401.82 251.77 1404.17 248.47 1407.98 247.83 C 1414.70 246.19 1421.41 251.11 1423.60 257.33 C 1429.10 270.85 1425.56 285.87 1420.58 298.97 C 1424.41 301.04 1428.55 302.96 1433.03 302.77 C 1437.29 302.72 1441.24 300.92 1445.21 299.56 C 1449.46 282.63 1460.15 267.37 1474.74 257.76 C 1477.14 256.25 1479.92 254.66 1482.89 255.27 C 1484.98 255.48 1485.94 258.14 1485.05 259.89 C 1483.74 262.48 1481.47 264.38 1479.60 266.53 C 1468.64 278.64 1461.21 294.44 1461.02 310.95 C 1460.99 314.86 1460.71 319.31 1463.34 322.54 C 1465.60 325.33 1469.68 324.85 1472.70 323.77 C 1478.93 321.42 1482.89 315.65 1486.15 310.15 C 1493.94 296.29 1495.88 279.81 1494.50 264.18 C 1494.17 259.04 1490.09 255.67 1486.49 252.59 C 1480.91 247.48 1475.58 242.00 1471.44 235.64 C 1467.65 229.78 1466.68 221.57 1470.66 215.55 C 1474.28 209.93 1480.44 206.50 1486.74 204.70 C 1495.10 202.17 1504.02 203.67 1512.49 201.72 C 1520.93 199.88 1530.16 198.43 1536.64 192.17 M 1408.09 256.38 C 1404.87 265.73 1406.95 275.96 1410.70 284.82 C 1411.69 275.44 1412.99 264.93 1408.09 256.38 M 1377.65 314.95 C 1377.78 318.37 1378.56 322.65 1382.07 324.21 C 1386.72 325.46 1391.67 323.37 1395.08 320.19 C 1401.40 314.31 1404.94 306.21 1408.03 298.32 C 1401.33 288.35 1396.98 276.36 1398.26 264.21 C 1385.47 277.75 1376.55 295.99 1377.65 314.95 Z" />
<path fill="#000000" opacity="1.00" d=" M 1313.74 203.62 C 1317.18 197.34 1324.18 193.83 1331.06 192.81 C 1340.80 191.16 1351.74 194.07 1358.22 201.83 C 1364.37 209.47 1367.07 219.27 1368.11 228.87 C 1370.62 248.13 1365.35 267.37 1358.21 285.10 C 1352.42 298.46 1345.09 311.38 1335.00 321.98 C 1328.45 328.79 1319.80 334.48 1310.05 334.58 C 1305.48 334.66 1301.06 331.51 1300.01 327.00 C 1296.08 314.36 1299.99 301.11 1304.40 289.15 C 1308.73 276.74 1315.97 265.49 1324.80 255.81 C 1327.01 253.33 1329.64 250.87 1333.05 250.28 C 1335.35 249.84 1338.43 250.61 1339.15 253.15 C 1341.20 258.96 1339.00 265.21 1336.65 270.59 C 1332.22 280.92 1325.37 289.90 1319.36 299.30 C 1318.10 305.46 1317.79 312.05 1319.92 318.07 C 1322.85 317.70 1326.12 317.51 1328.40 315.36 C 1332.42 311.60 1335.53 306.97 1338.23 302.21 C 1348.67 283.37 1352.40 261.23 1350.69 239.89 C 1349.73 230.54 1348.08 220.55 1342.03 213.02 C 1336.95 206.48 1326.61 205.68 1320.32 210.93 C 1320.15 213.39 1322.31 217.64 1319.00 218.64 C 1317.41 219.35 1315.42 219.08 1314.31 217.72 C 1310.80 213.88 1311.43 207.90 1313.74 203.62 Z" />
<path fill="#000000" opacity="1.00" d=" M 420.10 197.60 C 437.58 195.00 455.33 195.87 472.86 197.40 C 496.49 198.73 520.18 198.88 543.83 199.76 C 547.14 199.72 549.42 203.07 549.79 206.06 C 549.56 208.95 546.36 210.04 543.95 210.58 C 530.13 213.30 515.98 212.40 501.98 212.53 C 488.31 212.27 474.63 211.78 460.98 210.93 C 443.71 209.92 426.15 207.46 409.02 211.05 C 397.26 213.66 385.77 219.64 378.48 229.45 C 371.50 238.97 370.48 251.96 374.13 262.98 C 376.45 270.32 381.29 276.46 386.25 282.20 C 398.95 279.57 412.32 281.05 424.41 285.58 C 427.63 286.63 429.29 289.84 429.42 293.06 C 421.52 296.45 413.90 290.81 405.97 290.89 C 396.38 290.63 386.38 292.05 378.05 297.09 C 374.85 299.07 371.54 301.48 370.18 305.15 C 367.85 310.85 369.75 318.64 375.68 321.29 C 392.29 328.05 412.99 323.44 424.78 309.80 C 431.57 302.34 436.24 293.21 439.78 283.84 C 443.78 273.14 447.81 262.45 451.69 251.71 C 455.72 240.53 462.26 230.50 468.66 220.57 C 470.03 218.21 472.59 217.09 474.93 215.95 C 476.20 217.44 479.35 218.48 478.06 220.91 C 474.56 232.58 470.66 244.13 466.86 255.71 C 460.82 274.99 452.33 293.90 439.26 309.48 C 429.29 321.49 414.78 329.97 399.14 331.51 C 390.58 332.29 381.56 331.98 373.64 328.29 C 368.69 325.91 364.04 322.11 362.13 316.81 C 359.26 309.00 361.29 299.84 366.52 293.50 C 369.79 289.54 374.37 287.06 378.84 284.72 C 373.94 278.99 367.95 273.73 365.48 266.39 C 361.39 253.55 363.19 238.89 370.51 227.53 C 381.66 210.94 400.66 200.79 420.10 197.60 Z" />
<path fill="#000000" opacity="1.00" d=" M 590.63 200.74 C 596.02 196.82 603.23 195.71 609.61 197.51 C 612.85 198.45 615.81 200.61 617.29 203.69 C 621.34 211.70 619.81 221.68 614.78 228.90 C 609.13 237.20 602.01 244.47 594.08 250.62 C 601.59 249.66 607.42 256.16 609.03 262.91 C 613.29 276.09 608.67 290.08 602.23 301.71 C 607.63 306.51 615.05 308.00 622.09 307.76 C 623.56 291.11 632.18 275.60 644.44 264.44 C 649.36 260.11 654.66 255.52 661.46 254.76 C 663.11 252.12 664.94 249.22 668.09 248.22 C 674.40 245.87 681.62 249.77 684.28 255.69 C 690.83 269.48 687.23 285.37 682.01 298.96 C 685.40 300.76 688.95 302.54 692.86 302.73 C 697.78 303.25 702.28 300.87 706.91 299.64 C 709.39 285.87 717.17 272.92 729.05 265.29 C 732.47 262.81 736.50 261.34 739.93 258.89 C 741.37 256.78 742.06 254.27 743.00 251.92 C 747.79 250.25 752.73 249.03 757.68 247.91 C 758.11 248.44 758.97 249.52 759.40 250.06 C 759.42 251.42 759.45 252.80 759.50 254.17 C 767.98 254.35 777.54 255.75 783.43 262.51 C 789.54 269.81 789.35 280.32 786.81 289.01 C 782.70 302.30 772.51 312.51 762.00 321.09 C 766.90 323.78 772.50 325.50 778.14 324.75 C 785.97 324.15 792.92 320.06 799.35 315.86 C 800.80 316.54 802.25 317.23 803.71 317.92 C 803.35 319.66 804.14 322.18 802.02 322.96 C 794.08 327.73 785.36 331.91 775.95 332.35 C 767.61 332.65 759.73 329.59 751.82 327.47 C 744.76 329.31 737.81 331.94 730.42 332.11 C 727.18 341.57 724.43 351.18 721.77 360.82 C 717.75 363.12 713.71 365.40 709.71 367.72 C 708.34 366.90 706.99 366.09 705.64 365.28 C 707.39 353.36 711.14 341.88 714.91 330.48 C 712.30 328.71 709.49 327.07 707.61 324.47 C 703.97 319.50 704.83 311.55 709.98 307.93 C 713.86 305.24 718.82 305.50 723.34 305.34 C 727.38 293.60 731.74 281.98 735.73 270.22 C 727.88 275.82 720.88 282.99 716.95 291.90 C 715.26 295.40 714.53 299.28 712.77 302.74 C 711.81 303.39 710.77 303.89 709.78 304.44 C 708.03 307.72 704.21 308.59 700.91 309.46 C 693.37 311.26 685.35 309.90 678.54 306.32 C 672.63 315.52 665.78 324.82 655.79 329.87 C 647.09 334.24 635.34 333.83 628.10 326.85 C 624.83 323.89 623.34 319.63 622.35 315.46 C 613.51 316.55 605.27 312.39 598.09 307.72 C 591.00 316.02 583.98 324.97 574.06 330.02 C 567.03 333.30 558.40 334.41 551.25 330.88 C 546.71 328.71 543.21 324.14 542.96 319.03 C 542.70 312.64 544.62 306.44 546.63 300.46 C 550.69 288.79 554.95 277.20 559.16 265.59 C 553.07 266.54 546.93 267.10 540.79 267.53 C 540.02 266.13 539.26 264.73 538.51 263.33 C 539.69 261.55 540.87 259.77 542.05 257.99 C 549.06 258.17 556.00 257.10 562.87 255.88 C 567.30 244.27 570.90 232.33 576.03 221.00 C 579.44 213.38 583.67 205.67 590.63 200.74 M 599.18 212.15 C 590.96 223.17 586.62 236.43 582.35 249.34 C 594.31 241.20 604.84 230.24 610.43 216.73 C 611.56 213.67 612.77 208.61 608.93 206.96 C 604.76 205.36 601.46 209.23 599.18 212.15 M 577.07 264.99 C 570.72 282.14 563.64 299.07 558.91 316.77 C 558.34 319.22 557.45 322.43 559.75 324.30 C 562.99 326.98 567.62 325.60 571.10 324.15 C 581.07 319.54 586.93 309.57 591.41 300.02 C 582.92 287.60 579.52 270.72 586.26 256.76 C 583.12 259.41 578.05 260.48 577.07 264.99 M 669.50 256.40 C 666.44 265.68 668.16 275.85 672.21 284.54 C 673.10 275.19 674.45 264.93 669.50 256.40 M 594.02 258.55 C 589.96 268.74 591.13 280.21 594.74 290.35 C 597.13 280.12 600.71 267.91 594.02 258.55 M 755.96 262.31 C 750.04 277.87 744.35 293.53 739.04 309.30 C 743.67 311.29 748.22 313.48 752.88 315.43 C 760.82 307.26 768.14 297.69 770.21 286.22 C 771.33 279.82 771.38 272.36 766.83 267.20 C 764.17 263.94 759.87 263.05 755.96 262.31 M 639.04 314.01 C 639.14 317.62 639.64 322.13 643.18 324.06 C 647.79 325.61 652.90 323.48 656.35 320.34 C 662.78 314.45 666.36 306.27 669.48 298.30 C 662.75 288.35 658.44 276.33 659.70 264.19 C 647.15 277.54 638.28 295.35 639.04 314.01 M 716.43 322.29 C 719.18 320.25 719.36 316.44 720.38 313.43 C 717.12 315.18 715.95 318.79 716.43 322.29 M 733.38 324.91 C 736.50 323.99 739.59 322.99 742.67 321.93 C 740.51 320.37 738.33 318.84 736.15 317.33 C 735.17 319.84 734.25 322.36 733.38 324.91 Z" />
<path fill="#000000" opacity="1.00" d=" M 523.68 216.67 C 527.74 213.07 534.49 214.50 537.18 219.12 C 532.73 224.94 530.43 231.96 527.61 238.64 C 520.18 256.75 513.02 274.97 506.21 293.32 C 503.27 301.47 500.38 309.68 498.32 318.11 C 497.70 320.59 497.77 324.60 500.98 325.13 C 512.48 325.73 522.94 320.00 532.91 315.03 C 534.18 315.80 535.46 316.57 536.74 317.35 C 536.73 318.77 536.73 320.20 536.73 321.64 C 525.25 328.17 512.41 333.62 498.95 332.93 C 493.17 332.66 486.88 330.36 484.10 324.92 C 480.68 318.13 482.70 310.29 484.32 303.30 C 488.52 287.40 494.90 272.19 501.08 256.99 C 506.91 242.68 514.40 229.03 523.68 216.67 Z" />
<path fill="#000000" opacity="1.00" d=" M 470.82 268.85 C 476.40 254.25 483.55 239.58 495.67 229.26 C 497.49 230.23 501.47 230.99 500.16 233.95 C 493.95 250.33 488.34 266.95 482.41 283.44 C 477.66 296.73 470.45 308.97 462.54 320.59 C 460.16 324.20 456.72 326.94 452.98 329.02 C 451.77 328.46 450.58 327.92 449.39 327.38 C 448.98 326.08 448.58 324.79 448.19 323.50 C 452.69 316.68 455.84 309.10 458.66 301.47 C 462.60 290.55 466.76 279.72 470.82 268.85 Z" />
<path fill="#000000" opacity="1.00" d=" M 1022.01 249.13 C 1026.20 246.52 1031.88 247.26 1035.66 250.29 C 1039.98 253.50 1041.68 258.91 1042.80 263.94 C 1045.21 275.83 1041.93 287.92 1037.79 299.03 C 1044.82 303.63 1054.11 303.76 1061.44 299.77 C 1062.68 300.55 1063.93 301.34 1065.20 302.14 C 1064.99 303.61 1064.81 305.08 1064.64 306.56 C 1055.24 311.49 1043.60 311.40 1034.29 306.33 C 1028.36 315.71 1021.30 325.10 1011.10 330.12 C 1001.09 335.12 987.52 332.91 980.78 323.59 C 973.57 328.70 964.96 332.41 955.97 332.05 C 950.09 331.97 944.01 329.42 940.63 324.47 C 937.24 319.53 936.94 313.07 938.49 307.43 C 942.19 293.38 949.90 280.82 954.05 266.93 C 937.60 280.48 926.06 298.92 916.97 317.95 C 914.80 322.47 913.57 328.21 908.75 330.72 C 905.07 332.57 901.13 328.97 900.33 325.46 C 898.38 317.12 900.10 308.46 902.54 300.41 C 905.95 288.47 911.54 277.20 913.87 264.94 C 907.51 268.27 902.55 273.65 898.64 279.57 C 893.26 287.78 888.33 296.32 884.39 305.32 C 881.18 312.13 878.54 319.25 874.77 325.79 C 868.10 334.54 853.55 332.92 847.23 324.52 C 839.70 329.32 831.04 333.36 821.89 332.60 C 815.54 332.14 808.79 328.87 806.21 322.76 C 803.77 316.67 805.18 309.95 806.67 303.81 C 810.11 290.21 815.72 277.31 820.43 264.13 C 820.88 262.04 823.28 261.71 824.87 260.79 C 828.27 259.40 831.19 257.14 834.32 255.26 C 836.49 253.53 840.52 255.00 840.42 258.00 C 840.56 262.16 839.21 266.18 838.00 270.10 C 832.66 286.40 822.52 300.91 819.07 317.86 C 818.43 320.41 818.65 324.51 821.99 324.89 C 830.94 325.89 838.64 320.27 845.93 315.92 C 847.37 312.36 849.41 308.82 852.81 306.80 C 856.36 304.36 861.94 304.84 864.40 308.62 C 867.31 312.62 867.07 317.77 867.21 322.47 C 876.72 306.08 882.70 287.62 894.60 272.66 C 901.38 264.27 910.76 256.64 922.06 256.40 C 926.70 255.82 930.36 260.59 930.07 264.94 C 929.25 276.75 923.39 287.31 919.04 298.08 C 926.67 286.57 934.66 275.20 944.25 265.22 C 948.02 261.45 952.42 257.46 958.01 257.11 C 964.59 257.54 969.15 264.74 968.19 270.98 C 965.96 289.39 953.42 304.62 951.10 323.01 C 960.65 327.38 970.49 321.49 978.18 316.08 C 976.65 303.24 980.81 290.38 987.60 279.58 C 993.21 270.48 1000.89 262.61 1010.03 257.03 C 1012.11 255.70 1014.62 255.47 1016.95 254.77 C 1018.69 252.95 1019.79 250.48 1022.01 249.13 M 1025.22 256.58 C 1022.10 265.89 1024.31 275.89 1027.78 284.76 C 1029.00 275.43 1030.35 265.03 1025.22 256.58 M 994.81 313.87 C 994.91 317.56 995.40 322.25 999.11 324.13 C 1003.74 325.54 1008.78 323.43 1012.21 320.27 C 1018.60 314.41 1022.11 306.25 1025.27 298.35 C 1018.59 288.36 1014.16 276.34 1015.52 264.17 C 1002.95 277.47 994.12 295.26 994.81 313.87 Z" />
<path fill="#000000" opacity="1.00" d=" M 1552.88 251.98 C 1557.70 250.00 1562.88 248.97 1567.97 247.83 C 1568.70 249.87 1569.13 251.99 1569.42 254.15 C 1577.04 254.43 1585.33 255.45 1591.32 260.67 C 1597.32 265.88 1598.89 274.48 1597.94 282.06 C 1596.64 294.36 1589.11 304.94 1580.47 313.34 C 1577.89 316.23 1574.32 318.19 1572.08 321.33 C 1577.50 324.34 1583.90 325.63 1590.05 324.48 C 1597.10 323.49 1603.13 319.47 1609.15 315.95 C 1610.36 316.52 1611.60 317.09 1612.85 317.67 C 1609.71 299.30 1618.69 281.06 1630.91 267.85 C 1636.77 262.25 1643.08 255.90 1651.50 254.75 C 1653.15 252.12 1654.99 249.24 1658.12 248.23 C 1664.41 245.86 1671.66 249.75 1674.32 255.67 C 1680.90 269.46 1677.31 285.39 1672.05 298.99 C 1679.06 303.67 1688.38 303.73 1695.73 299.78 C 1696.95 300.53 1698.19 301.29 1699.45 302.05 C 1699.23 303.57 1699.04 305.10 1698.87 306.63 C 1689.46 311.41 1677.87 311.45 1668.59 306.32 C 1663.68 313.92 1658.30 321.50 1650.87 326.83 C 1645.13 330.96 1637.97 333.56 1630.84 332.56 C 1623.56 331.82 1616.29 327.39 1613.95 320.17 C 1613.06 321.51 1612.17 322.92 1610.69 323.65 C 1601.98 328.57 1592.31 333.10 1582.05 332.26 C 1575.06 331.85 1568.49 329.33 1561.81 327.51 C 1554.63 329.09 1547.66 332.03 1540.17 332.08 C 1536.90 341.51 1534.13 351.11 1531.55 360.75 C 1527.49 363.10 1523.44 365.45 1519.34 367.72 C 1518.00 366.90 1516.67 366.09 1515.36 365.28 C 1517.05 353.29 1521.01 341.82 1524.57 330.30 C 1521.78 328.55 1518.76 326.84 1516.99 323.97 C 1513.70 318.94 1514.74 311.25 1519.86 307.82 C 1523.72 305.24 1528.56 305.48 1533.00 305.37 C 1537.14 293.64 1541.43 281.97 1545.45 270.21 C 1537.44 275.92 1530.34 283.29 1526.43 292.43 C 1524.78 295.93 1524.14 299.85 1522.20 303.21 C 1520.07 305.29 1515.92 303.01 1516.72 300.07 C 1519.00 282.68 1531.38 267.39 1547.34 260.46 C 1550.87 259.08 1551.21 254.89 1552.88 251.98 M 1659.16 256.47 C 1656.70 266.06 1658.42 276.27 1662.34 285.22 C 1663.15 277.78 1663.47 270.18 1662.22 262.77 C 1661.91 260.37 1660.70 258.27 1659.16 256.47 M 1548.71 309.23 C 1553.25 311.32 1557.84 313.29 1562.34 315.47 C 1571.11 307.00 1578.76 296.34 1580.27 283.94 C 1581.04 278.06 1580.50 271.35 1576.22 266.84 C 1573.55 263.84 1569.43 263.06 1565.70 262.30 C 1559.71 277.82 1554.16 293.51 1548.71 309.23 M 1629.40 317.88 C 1629.93 320.46 1631.18 323.49 1634.00 324.22 C 1638.42 325.46 1643.05 323.32 1646.32 320.39 C 1652.85 314.55 1656.39 306.29 1659.54 298.30 C 1652.81 288.35 1648.51 276.35 1649.75 264.21 C 1636.30 278.48 1627.12 297.94 1629.40 317.88 M 1526.52 323.04 C 1528.15 320.03 1529.33 316.79 1530.11 313.45 C 1526.56 315.26 1525.43 319.36 1526.52 323.04 M 1543.08 324.93 C 1546.18 323.99 1549.28 323.00 1552.36 321.94 C 1550.20 320.36 1548.02 318.82 1545.82 317.32 C 1544.88 319.84 1543.95 322.38 1543.08 324.93 Z" />
</g>
<g id="#bd0713ff">
<path fill="#bd0713" opacity="1.00" d=" M 817.95 207.95 C 823.89 203.23 832.80 204.75 838.09 209.76 C 843.08 206.92 848.63 203.52 854.62 205.64 C 864.19 208.19 867.28 220.64 862.59 228.63 C 856.86 238.21 847.18 244.35 838.78 251.34 C 830.40 245.21 821.82 238.94 815.64 230.47 C 810.86 223.78 811.20 213.22 817.95 207.95 Z" />
</g>
</svg>
